<?xml version="1.0"?>
<svg xmlns="http://www.w3.org/2000/svg" version="1.1" width="1337.3385009765625pt" height="457.41217041015625pt" viewBox="9.330708661417322 -69.76572417799812 1337.33854834489 457.4121595923342" preserveAspectRatio="none" xmlns:xlink="http://www.w3.org/1999/xlink">
  <defs>
  </defs>
  <path d="M178.79998779296875,191.6999969482422 L194.05096435546875,178.60000610351562 " stroke="#6E6E6E" fill="none" stroke-width="1" stroke-opacity="1" />
  <path d="M198.3748321533203,174.88595581054688 L195.49746704101562,180.28404235839844 L192.60443115234375,176.9159698486328 L198.3748321533203,174.88595581054688 " stroke="none" fill="#6E6E6E" fill-rule="evenodd" stroke-width="0" fill-opacity="1" />
  <path d="M198.3748321533203,174.88595581054688 L195.49746704101562,180.28404235839844 L192.60443115234375,176.9159698486328 L198.3748321533203,174.88595581054688 " stroke="#6E6E6E" fill="none" stroke-width="1" stroke-opacity="1" />
  <path d="M178.79998779296875,197.6999969482422 L194.05096435546875,210.79998779296875 " stroke="#6E6E6E" fill="none" stroke-width="1" stroke-opacity="1" />
  <path d="M198.37481689453125,214.51402282714844 L192.60443115234375,212.48402404785156 L195.49746704101562,209.11595153808594 L198.37481689453125,214.51402282714844 " stroke="none" fill="#6E6E6E" fill-rule="evenodd" stroke-width="0" fill-opacity="1" />
  <path d="M198.37481689453125,214.51402282714844 L192.60443115234375,212.48402404785156 L195.49746704101562,209.11595153808594 L198.37481689453125,214.51402282714844 " stroke="#6E6E6E" fill="none" stroke-width="1" stroke-opacity="1" />
  <path d="M89.39999389648438,194.6999969482422 L98.69998931884766,194.6999969482422 " stroke="#6E6E6E" fill="none" stroke-width="1" stroke-opacity="1" />
  <path d="M104.39999389648438,194.69998168945312 L98.69998931884766,196.91998291015625 L98.69998931884766,192.47999572753906 L104.39999389648438,194.69998168945312 " stroke="none" fill="#6E6E6E" fill-rule="evenodd" stroke-width="0" fill-opacity="1" />
  <path d="M104.39999389648438,194.69998168945312 L98.69998931884766,196.91998291015625 L98.69998931884766,192.47999572753906 L104.39999389648438,194.69998168945312 " stroke="#6E6E6E" fill="none" stroke-width="1" stroke-opacity="1" />
  <path d="M357.5999755859375,181.71743774414062 L371.7931213378906,176.76412963867188 " stroke="#6E6E6E" fill="none" stroke-width="1" stroke-opacity="1" />
  <path d="M377.1748046875,174.88595581054688 L372.5246276855469,178.86013793945312 L371.0616149902344,174.66810607910156 L377.1748046875,174.88595581054688 " stroke="none" fill="#6E6E6E" fill-rule="evenodd" stroke-width="0" fill-opacity="1" />
  <path d="M377.1748046875,174.88595581054688 L372.5246276855469,178.86013793945312 L371.0616149902344,174.66810607910156 L377.1748046875,174.88595581054688 " stroke="#6E6E6E" fill="none" stroke-width="1" stroke-opacity="1" />
  <path d="M263.6251525878906,174.88595581054688 L279.48828125,193.37411499023438 " stroke="#6E6E6E" fill="none" stroke-width="1" stroke-opacity="1" />
  <path d="M283.1999816894531,197.69998168945312 L277.803466796875,194.8197021484375 L281.173095703125,191.92849731445312 L283.1999816894531,197.69998168945312 " stroke="none" fill="#6E6E6E" fill-rule="evenodd" stroke-width="0" fill-opacity="1" />
  <path d="M283.1999816894531,197.69998168945312 L277.803466796875,194.8197021484375 L281.173095703125,191.92849731445312 L283.1999816894531,197.69998168945312 " stroke="#6E6E6E" fill="none" stroke-width="1" stroke-opacity="1" />
  <path d="M89.39999389648438,135.29998779296875 L141.59999084472656,286.79998779296875 " stroke="#6E6E6E" fill="none" stroke-width="1" stroke-opacity="1" />
  <path d="M141.59999084472656,286.79998779296875 L231,286.79998779296875 " stroke="#6E6E6E" fill="none" stroke-width="1" stroke-opacity="1" />
  <path d="M231,286.79998779296875 L280.457275390625,196.69676208496094 " stroke="#6E6E6E" fill="none" stroke-width="1" stroke-opacity="1" />
  <path d="M283.1999816894531,191.69998168945312 L282.40338134765625,197.76495361328125 L278.51116943359375,195.6285400390625 L283.1999816894531,191.69998168945312 " stroke="none" fill="#6E6E6E" fill-rule="evenodd" stroke-width="0" fill-opacity="1" />
  <path d="M283.1999816894531,191.69998168945312 L282.40338134765625,197.76495361328125 L278.51116943359375,195.6285400390625 L283.1999816894531,191.69998168945312 " stroke="#6E6E6E" fill="none" stroke-width="1" stroke-opacity="1" />
  <path d="M178.79998779296875,66.89999389648438 L231,38.69999694824219 " stroke="#6E6E6E" fill="none" stroke-width="1" stroke-opacity="1" />
  <path d="M231,38.69999694824219 L320.39996337890625,38.69999694824219 " stroke="#6E6E6E" fill="none" stroke-width="1" stroke-opacity="1" />
  <path d="M320.39996337890625,38.69999694824219 L409.7999572753906,38.69999694824219 " stroke="#6E6E6E" fill="none" stroke-width="1" stroke-opacity="1" />
  <path d="M409.7999572753906,38.69999694824219 L499.1999816894531,38.69999694824219 " stroke="#6E6E6E" fill="none" stroke-width="1" stroke-opacity="1" />
  <path d="M499.1999816894531,38.69999694824219 L545.699951171875,38.69999694824219 " stroke="#6E6E6E" fill="none" stroke-width="1" stroke-opacity="1" />
  <path d="M551.3999633789062,38.69999694824219 L545.699951171875,40.91999816894531 L545.699951171875,36.47999954223633 L551.3999633789062,38.69999694824219 " stroke="none" fill="#6E6E6E" fill-rule="evenodd" stroke-width="0" fill-opacity="1" />
  <path d="M551.3999633789062,38.69999694824219 L545.699951171875,40.91999816894531 L545.699951171875,36.47999954223633 L551.3999633789062,38.69999694824219 " stroke="#6E6E6E" fill="none" stroke-width="1" stroke-opacity="1" />
  <path d="M178.79998779296875,72.89999389648438 L194.05096435546875,85.99999237060547 " stroke="#6E6E6E" fill="none" stroke-width="1" stroke-opacity="1" />
  <path d="M198.37481689453125,89.71403503417969 L192.60443115234375,87.68402862548828 L195.49746704101562,84.31595611572266 L198.37481689453125,89.71403503417969 " stroke="none" fill="#6E6E6E" fill-rule="evenodd" stroke-width="0" fill-opacity="1" />
  <path d="M198.37481689453125,89.71403503417969 L192.60443115234375,87.68402862548828 L195.49746704101562,84.31595611572266 L198.37481689453125,89.71403503417969 " stroke="#6E6E6E" fill="none" stroke-width="1" stroke-opacity="1" />
  <path d="M89.39999389648438,254.09999084472656 L103.92974853515625,78.58056640625 " stroke="#6E6E6E" fill="none" stroke-width="1" stroke-opacity="1" />
  <path d="M104.39999389648438,72.9000015258789 L106.14218139648438,78.76371765136719 L101.71731567382812,78.39741516113281 L104.39999389648438,72.9000015258789 " stroke="none" fill="#6E6E6E" fill-rule="evenodd" stroke-width="0" fill-opacity="1" />
  <path d="M104.39999389648438,72.9000015258789 L106.14218139648438,78.76371765136719 L101.71731567382812,78.39741516113281 L104.39999389648438,72.9000015258789 " stroke="#6E6E6E" fill="none" stroke-width="1" stroke-opacity="1" />
  <path d="M89.39999389648438,129.29998779296875 L103.06775665283203,72.44212341308594 " stroke="#6E6E6E" fill="none" stroke-width="1" stroke-opacity="1" />
  <path d="M104.39999389648438,66.9000015258789 L105.22626495361328,72.96099090576172 L100.90924072265625,71.92324829101562 L104.39999389648438,66.9000015258789 " stroke="none" fill="#6E6E6E" fill-rule="evenodd" stroke-width="0" fill-opacity="1" />
  <path d="M104.39999389648438,66.9000015258789 L105.22626495361328,72.96099090576172 L100.90924072265625,71.92324829101562 L104.39999389648438,66.9000015258789 " stroke="#6E6E6E" fill="none" stroke-width="1" stroke-opacity="1" />
  <path d="M536.3999633789062,191.6999969482422 L545.8106689453125,193.58213806152344 " stroke="#6E6E6E" fill="none" stroke-width="1" stroke-opacity="1" />
  <path d="M551.3999633789062,194.6999969482422 L545.3753051757812,195.75901794433594 L546.2460327148438,191.40524291992188 L551.3999633789062,194.6999969482422 " stroke="none" fill="#6E6E6E" fill-rule="evenodd" stroke-width="0" fill-opacity="1" />
  <path d="M551.3999633789062,194.6999969482422 L545.3753051757812,195.75901794433594 L546.2460327148438,191.40524291992188 L551.3999633789062,194.6999969482422 " stroke="#6E6E6E" fill="none" stroke-width="1" stroke-opacity="1" />
  <path d="M536.3999633789062,197.6999969482422 L560.5032958984375,234.87100219726562 " stroke="#6E6E6E" fill="none" stroke-width="1" stroke-opacity="1" />
  <path d="M563.6044921875,239.6535186767578 L558.640625,236.07884216308594 L562.365966796875,233.6631622314453 L563.6044921875,239.6535186767578 " stroke="none" fill="#6E6E6E" fill-rule="evenodd" stroke-width="0" fill-opacity="1" />
  <path d="M563.6044921875,239.6535186767578 L558.640625,236.07884216308594 L562.365966796875,233.6631622314453 L563.6044921875,239.6535186767578 " stroke="#6E6E6E" fill="none" stroke-width="1" stroke-opacity="1" />
  <path d="M442.4251403808594,174.88595581054688 L457.67608642578125,187.9859619140625 " stroke="#6E6E6E" fill="none" stroke-width="1" stroke-opacity="1" />
  <path d="M461.9999694824219,191.6999969482422 L456.2295837402344,189.6699981689453 L459.12261962890625,186.3019256591797 L461.9999694824219,191.6999969482422 " stroke="none" fill="#6E6E6E" fill-rule="evenodd" stroke-width="0" fill-opacity="1" />
  <path d="M461.9999694824219,191.6999969482422 L456.2295837402344,189.6699981689453 L459.12261962890625,186.3019256591797 L461.9999694824219,191.6999969482422 " stroke="#6E6E6E" fill="none" stroke-width="1" stroke-opacity="1" />
  <path d="M442.4251403808594,214.51402282714844 L457.67608642578125,201.41404724121094 " stroke="#6E6E6E" fill="none" stroke-width="1" stroke-opacity="1" />
  <path d="M461.9999694824219,197.6999969482422 L459.12261962890625,203.09808349609375 L456.2295837402344,199.73001098632812 L461.9999694824219,197.6999969482422 " stroke="none" fill="#6E6E6E" fill-rule="evenodd" stroke-width="0" fill-opacity="1" />
  <path d="M461.9999694824219,197.6999969482422 L459.12261962890625,203.09808349609375 L456.2295837402344,199.73001098632812 L461.9999694824219,197.6999969482422 " stroke="#6E6E6E" fill="none" stroke-width="1" stroke-opacity="1" />
  <path d="M715.199951171875,116.70000457763672 L724.5,116.70000457763672 " stroke="#6E6E6E" fill="none" stroke-width="1" stroke-opacity="1" />
  <path d="M730.199951171875,116.69999694824219 L724.4999389648438,118.91999816894531 L724.4999389648438,114.4800033569336 L730.199951171875,116.69999694824219 " stroke="none" fill="#6E6E6E" fill-rule="evenodd" stroke-width="0" fill-opacity="1" />
  <path d="M730.199951171875,116.69999694824219 L724.4999389648438,118.91999816894531 L724.4999389648438,114.4800033569336 L730.199951171875,116.69999694824219 " stroke="#6E6E6E" fill="none" stroke-width="1" stroke-opacity="1" />
  <path d="M610.475830078125,175.6136932373047 L638.08251953125,124.71055603027344 " stroke="#6E6E6E" fill="none" stroke-width="1" stroke-opacity="1" />
  <path d="M640.7999267578125,119.69999694824219 L640.0339965820312,125.76891326904297 L636.1310424804688,123.65219116210938 L640.7999267578125,119.69999694824219 " stroke="none" fill="#6E6E6E" fill-rule="evenodd" stroke-width="0" fill-opacity="1" />
  <path d="M640.7999267578125,119.69999694824219 L640.0339965820312,125.76891326904297 L636.1310424804688,123.65219116210938 L640.7999267578125,119.69999694824219 " stroke="#6E6E6E" fill="none" stroke-width="1" stroke-opacity="1" />
  <path d="M610.475830078125,57.78630065917969 L638.08251953125,108.68944549560547 " stroke="#6E6E6E" fill="none" stroke-width="1" stroke-opacity="1" />
  <path d="M640.7999877929688,113.69999694824219 L636.131103515625,109.74781036376953 L640.0340576171875,107.6310806274414 L640.7999877929688,113.69999694824219 " stroke="none" fill="#6E6E6E" fill-rule="evenodd" stroke-width="0" fill-opacity="1" />
  <path d="M640.7999877929688,113.69999694824219 L636.131103515625,109.74781036376953 L640.0340576171875,107.6310806274414 L640.7999877929688,113.69999694824219 " stroke="#6E6E6E" fill="none" stroke-width="1" stroke-opacity="1" />
  <path d="M894,116.70000457763672 L903.2999877929688,116.70000457763672 " stroke="#6E6E6E" fill="none" stroke-width="1" stroke-opacity="1" />
  <path d="M909,116.69999694824219 L903.2999877929688,118.91999816894531 L903.2999877929688,114.4800033569336 L909,116.69999694824219 " stroke="none" fill="#6E6E6E" fill-rule="evenodd" stroke-width="0" fill-opacity="1" />
  <path d="M909,116.69999694824219 L903.2999877929688,118.91999816894531 L903.2999877929688,114.4800033569336 L909,116.69999694824219 " stroke="#6E6E6E" fill="none" stroke-width="1" stroke-opacity="1" />
  <path d="M804.5999145507812,116.70000457763672 L813.8999633789062,116.70000457763672 " stroke="#6E6E6E" fill="none" stroke-width="1" stroke-opacity="1" />
  <path d="M819.5999755859375,116.69999694824219 L813.8999633789062,118.91999816894531 L813.8999633789062,114.4800033569336 L819.5999755859375,116.69999694824219 " stroke="none" fill="#6E6E6E" fill-rule="evenodd" stroke-width="0" fill-opacity="1" />
  <path d="M819.5999755859375,116.69999694824219 L813.8999633789062,118.91999816894531 L813.8999633789062,114.4800033569336 L819.5999755859375,116.69999694824219 " stroke="#6E6E6E" fill="none" stroke-width="1" stroke-opacity="1" />
  <path d="M1072.7999267578125,116.70000457763672 L1082.099853515625,116.70000457763672 " stroke="#6E6E6E" fill="none" stroke-width="1" stroke-opacity="1" />
  <path d="M1087.7999267578125,116.69999694824219 L1082.099853515625,118.91999816894531 L1082.099853515625,114.4800033569336 L1087.7999267578125,116.69999694824219 " stroke="none" fill="#6E6E6E" fill-rule="evenodd" stroke-width="0" fill-opacity="1" />
  <path d="M1087.7999267578125,116.69999694824219 L1082.099853515625,118.91999816894531 L1082.099853515625,114.4800033569336 L1087.7999267578125,116.69999694824219 " stroke="#6E6E6E" fill="none" stroke-width="1" stroke-opacity="1" />
  <path d="M983.3999633789062,116.70000457763672 L992.699951171875,116.70000457763672 " stroke="#6E6E6E" fill="none" stroke-width="1" stroke-opacity="1" />
  <path d="M998.3999633789062,116.69999694824219 L992.699951171875,118.91999816894531 L992.699951171875,114.4800033569336 L998.3999633789062,116.69999694824219 " stroke="none" fill="#6E6E6E" fill-rule="evenodd" stroke-width="0" fill-opacity="1" />
  <path d="M998.3999633789062,116.69999694824219 L992.699951171875,118.91999816894531 L992.699951171875,114.4800033569336 L998.3999633789062,116.69999694824219 " stroke="#6E6E6E" fill="none" stroke-width="1" stroke-opacity="1" />
  <path d="M1251.599853515625,233.6999969482422 L1260.89990234375,233.6999969482422 " stroke="#6E6E6E" fill="none" stroke-width="1" stroke-opacity="1" />
  <path d="M1266.5999755859375,233.69998168945312 L1260.89990234375,235.91998291015625 L1260.89990234375,231.47999572753906 L1266.5999755859375,233.69998168945312 " stroke="none" fill="#6E6E6E" fill-rule="evenodd" stroke-width="0" fill-opacity="1" />
  <path d="M1266.5999755859375,233.69998168945312 L1260.89990234375,235.91998291015625 L1260.89990234375,231.47999572753906 L1266.5999755859375,233.69998168945312 " stroke="#6E6E6E" fill="none" stroke-width="1" stroke-opacity="1" />
  <path d="M89.39999389648438,260.0999755859375 L141.59999084472656,292.79998779296875 " stroke="#6E6E6E" fill="none" stroke-width="1" stroke-opacity="1" />
  <path d="M141.59999084472656,292.79998779296875 L231,292.79998779296875 " stroke="#6E6E6E" fill="none" stroke-width="1" stroke-opacity="1" />
  <path d="M231,292.79998779296875 L320.39996337890625,292.79998779296875 " stroke="#6E6E6E" fill="none" stroke-width="1" stroke-opacity="1" />
  <path d="M320.39996337890625,292.79998779296875 L409.7999572753906,292.79998779296875 " stroke="#6E6E6E" fill="none" stroke-width="1" stroke-opacity="1" />
  <path d="M409.7999572753906,292.79998779296875 L499.1999816894531,292.79998779296875 " stroke="#6E6E6E" fill="none" stroke-width="1" stroke-opacity="1" />
  <path d="M499.1999816894531,292.79998779296875 L588.5999755859375,292.79998779296875 " stroke="#6E6E6E" fill="none" stroke-width="1" stroke-opacity="1" />
  <path d="M588.5999755859375,292.79998779296875 L678,292.79998779296875 " stroke="#6E6E6E" fill="none" stroke-width="1" stroke-opacity="1" />
  <path d="M678,292.79998779296875 L767.3999633789062,292.79998779296875 " stroke="#6E6E6E" fill="none" stroke-width="1" stroke-opacity="1" />
  <path d="M767.3999633789062,292.79998779296875 L856.7999877929688,292.79998779296875 " stroke="#6E6E6E" fill="none" stroke-width="1" stroke-opacity="1" />
  <path d="M856.7999877929688,292.79998779296875 L946.199951171875,292.79998779296875 " stroke="#6E6E6E" fill="none" stroke-width="1" stroke-opacity="1" />
  <path d="M946.199951171875,292.79998779296875 L1035.599853515625,292.79998779296875 " stroke="#6E6E6E" fill="none" stroke-width="1" stroke-opacity="1" />
  <path d="M1035.599853515625,292.79998779296875 L1125,292.79998779296875 " stroke="#6E6E6E" fill="none" stroke-width="1" stroke-opacity="1" />
  <path d="M1125,292.79998779296875 L1173.317138671875,240.87295532226562 " stroke="#6E6E6E" fill="none" stroke-width="1" stroke-opacity="1" />
  <path d="M1177.1998291015625,236.6999969482422 L1174.9422607421875,242.3852081298828 L1171.6917724609375,239.3606719970703 L1177.1998291015625,236.6999969482422 " stroke="none" fill="#6E6E6E" fill-rule="evenodd" stroke-width="0" fill-opacity="1" />
  <path d="M1177.1998291015625,236.6999969482422 L1174.9422607421875,242.3852081298828 L1171.6917724609375,239.3606719970703 L1177.1998291015625,236.6999969482422 " stroke="#6E6E6E" fill="none" stroke-width="1" stroke-opacity="1" />
  <path d="M1141.2249755859375,137.93408203125 L1175.1390380859375,225.3856201171875 " stroke="#6E6E6E" fill="none" stroke-width="1" stroke-opacity="1" />
  <path d="M1177.1998291015625,230.6999969482422 L1173.069091796875,226.18829345703125 L1177.208740234375,224.5829315185547 L1177.1998291015625,230.6999969482422 " stroke="none" fill="#6E6E6E" fill-rule="evenodd" stroke-width="0" fill-opacity="1" />
  <path d="M1177.1998291015625,230.6999969482422 L1173.069091796875,226.18829345703125 L1177.208740234375,224.5829315185547 L1177.1998291015625,230.6999969482422 " stroke="#6E6E6E" fill="none" stroke-width="1" stroke-opacity="1" />
  <path d="M89.39998626708984,132.29998779296875 C89.39998626708984,145.38912963867188 72.74497985839844,155.99998474121094 52.20001220703125,155.99998474121094 C31.655027389526367,156 15.000014305114746,145.38914489746094 14.99999713897705,132.3000030517578 L14.999994277954102,132.3000030517578 C14.999977111816406,119.21086120605469 31.65497398376465,108.60000610351562 52.1999626159668,108.5999984741211 C72.74494934082031,108.59998321533203 89.39996337890625,119.21083068847656 89.39998626708984,132.29998779296875 C89.39998626708984,132.29998779296875 89.39998626708984,132.29998779296875 89.39998626708984,132.29998779296875 " stroke="none" fill="#70AECC" fill-rule="evenodd" stroke-width="0" fill-opacity="1" />
  <text x="4.825189113616943" y="35.284881591796875" dx="0" dy="0" font-family="Segoe UI" font-size="8.249999754130847pt" fill="#000000" style="text-anchor:start" transform="matrix(0.750000 0.000000 0.000000 0.750000 15 108.5999984741211)">India_Pop_2025_</text>
  <text x="82.23319244384766" y="35.284881591796875" dx="0" dy="0" font-family="Segoe UI" font-size="8.249999754130847pt" fill="#000000" style="text-anchor:start" transform="matrix(0.750000 0.000000 0.000000 0.750000 15 108.5999984741211)"> ...</text>
  <path d="M89.39998626708984,132.29998779296875 C89.39998626708984,145.38912963867188 72.74497985839844,155.99998474121094 52.20001220703125,155.99998474121094 C31.655027389526367,156 15.000014305114746,145.38914489746094 14.99999713897705,132.3000030517578 L14.999994277954102,132.3000030517578 C14.999977111816406,119.21086120605469 31.65497398376465,108.60000610351562 52.1999626159668,108.5999984741211 C72.74494934082031,108.59998321533203 89.39996337890625,119.21083068847656 89.39998626708984,132.29998779296875 C89.39998626708984,132.29998779296875 89.39998626708984,132.29998779296875 89.39998626708984,132.29998779296875 " stroke="none" fill="none" stroke-width="0.75" stroke-opacity="0" />
  <path d="M446.99993896484375,225.8999786376953 C446.99993896484375,238.9891357421875 430.3449401855469,249.59999084472656 409.79998779296875,249.59999084472656 C389.2549743652344,249.59999084472656 372.5999755859375,238.98915100097656 372.5999450683594,225.90000915527344 L372.5999450683594,225.90000915527344 C372.5999450683594,212.81085205078125 389.25494384765625,202.1999969482422 409.7999267578125,202.1999969482422 C430.34490966796875,202.19998168945312 446.99993896484375,212.81082153320312 446.99993896484375,225.89999389648438 C446.99993896484375,225.89999389648438 446.99993896484375,225.89999389648438 446.99993896484375,225.89999389648438 " stroke="none" fill="#70AECC" fill-rule="evenodd" stroke-width="0" fill-opacity="1" />
  <text x="8.435355186462402" y="27.96988296508789" dx="0" dy="0" font-family="Segoe UI" font-size="8.249999754130847pt" fill="#000000" style="text-anchor:start" transform="matrix(0.750000 0.000000 0.000000 0.750000 372.5999755859375 202.1999969482422)">geoBoundaries</text>
  <text x="82.33818817138672" y="27.96988296508789" dx="0" dy="0" font-family="Segoe UI" font-size="8.249999754130847pt" fill="#000000" style="text-anchor:start" transform="matrix(0.750000 0.000000 0.000000 0.750000 372.5999755859375 202.1999969482422)">-</text>
  <text x="21.90185546875" y="42.599884033203125" dx="0" dy="0" font-family="Segoe UI" font-size="8.249999754130847pt" fill="#000000" style="text-anchor:start" transform="matrix(0.750000 0.000000 0.000000 0.750000 372.5999755859375 202.1999969482422)">IND</text>
  <text x="40.034854888916016" y="42.599884033203125" dx="0" dy="0" font-family="Segoe UI" font-size="8.249999754130847pt" fill="#000000" style="text-anchor:start" transform="matrix(0.750000 0.000000 0.000000 0.750000 372.5999755859375 202.1999969482422)">-</text>
  <text x="43.08735275268555" y="42.599884033203125" dx="0" dy="0" font-family="Segoe UI" font-size="8.249999754130847pt" fill="#000000" style="text-anchor:start" transform="matrix(0.750000 0.000000 0.000000 0.750000 372.5999755859375 202.1999969482422)">ADM2</text>
  <path d="M446.99993896484375,225.8999786376953 C446.99993896484375,238.9891357421875 430.3449401855469,249.59999084472656 409.79998779296875,249.59999084472656 C389.2549743652344,249.59999084472656 372.5999755859375,238.98915100097656 372.5999450683594,225.90000915527344 L372.5999450683594,225.90000915527344 C372.5999450683594,212.81085205078125 389.25494384765625,202.1999969482422 409.7999267578125,202.1999969482422 C430.34490966796875,202.19998168945312 446.99993896484375,212.81082153320312 446.99993896484375,225.89999389648438 C446.99993896484375,225.89999389648438 446.99993896484375,225.89999389648438 446.99993896484375,225.89999389648438 " stroke="none" fill="none" stroke-width="0.75" stroke-opacity="0" />
  <path d="M112.9039306640625,171 L170.29605102539062,171 L170.29603576660156,171 C174.99261474609375,170.99998474121094 178.7999725341797,174.8073272705078 178.7999725341797,179.50392150878906 C178.7999725341797,179.50392150878906 178.7999725341797,179.50393676757812 178.7999725341797,179.50393676757812 L178.79998779296875,179.50393676757812 L178.79998779296875,209.89605712890625 L178.7999725341797,209.89605712890625 C178.7999725341797,214.5926513671875 174.99264526367188,218.39999389648438 170.29605102539062,218.39999389648438 L170.29605102539062,218.39999389648438 L112.9039306640625,218.39999389648438 L112.9039306640625,218.39999389648438 C108.20733642578125,218.39999389648438 104.39999389648438,214.5926513671875 104.39999389648438,209.89605712890625 L104.39999389648438,179.50393676757812 L104.39998626708984,179.50393676757812 C104.39998626708984,174.80734252929688 108.20732116699219,171 112.90391540527344,170.99998474121094 " stroke="none" fill="#F2E279" fill-rule="evenodd" stroke-width="0" fill-opacity="1" />
  <text x="17.795188903808594" y="27.96988296508789" dx="0" dy="0" font-family="Segoe UI" font-size="8.249999754130847pt" fill="#000000" style="text-anchor:start" transform="matrix(0.750000 0.000000 0.000000 0.750000 104.39999389648438 171)">GA Layer To </text>
  <text x="29.61252212524414" y="42.599884033203125" dx="0" dy="0" font-family="Segoe UI" font-size="8.249999754130847pt" fill="#000000" style="text-anchor:start" transform="matrix(0.750000 0.000000 0.000000 0.750000 104.39999389648438 171)">Rasters</text>
  <path d="M112.9039306640625,171 L170.29605102539062,171 L170.29603576660156,171 C174.99261474609375,170.99998474121094 178.7999725341797,174.8073272705078 178.7999725341797,179.50392150878906 C178.7999725341797,179.50392150878906 178.7999725341797,179.50393676757812 178.7999725341797,179.50393676757812 L178.79998779296875,179.50393676757812 L178.79998779296875,209.89605712890625 L178.7999725341797,209.89605712890625 C178.7999725341797,214.5926513671875 174.99264526367188,218.39999389648438 170.29605102539062,218.39999389648438 L170.29605102539062,218.39999389648438 L112.9039306640625,218.39999389648438 L112.9039306640625,218.39999389648438 C108.20733642578125,218.39999389648438 104.39999389648438,214.5926513671875 104.39999389648438,209.89605712890625 L104.39999389648438,179.50393676757812 L104.39998626708984,179.50393676757812 C104.39998626708984,174.80734252929688 108.20732116699219,171 112.90391540527344,170.99998474121094 " stroke="none" fill="none" stroke-width="0.75" stroke-opacity="0" />
  <path d="M268.199951171875,163.49998474121094 C268.199951171875,176.58914184570312 251.5449676513672,187.1999969482422 231,187.1999969482422 C210.4550018310547,187.1999969482422 193.79998779296875,176.5891571044922 193.7999725341797,163.50001525878906 L193.7999725341797,163.50001525878906 C193.79995727539062,150.41085815429688 210.4549560546875,139.8000030517578 230.99993896484375,139.8000030517578 C251.54493713378906,139.79998779296875 268.199951171875,150.41082763671875 268.199951171875,163.5 C268.199951171875,163.5 268.199951171875,163.5 268.199951171875,163.5 " stroke="none" fill="#83CC7C" fill-rule="evenodd" stroke-width="0" fill-opacity="1" />
  <text x="29.30718994140625" y="35.284881591796875" dx="0" dy="0" font-family="Segoe UI" font-size="8.249999754130847pt" fill="#000000" style="text-anchor:start" transform="matrix(0.750000 0.000000 0.000000 0.750000 193.79998779296875 139.8000030517578)">concras</text>
  <path d="M268.199951171875,163.49998474121094 C268.199951171875,176.58914184570312 251.5449676513672,187.1999969482422 231,187.1999969482422 C210.4550018310547,187.1999969482422 193.79998779296875,176.5891571044922 193.7999725341797,163.50001525878906 L193.7999725341797,163.50001525878906 C193.79995727539062,150.41085815429688 210.4549560546875,139.8000030517578 230.99993896484375,139.8000030517578 C251.54493713378906,139.79998779296875 268.199951171875,150.41082763671875 268.199951171875,163.5 C268.199951171875,163.5 268.199951171875,163.5 268.199951171875,163.5 " stroke="none" fill="none" stroke-width="0.75" stroke-opacity="0" />
  <path d="M268.199951171875,225.8999786376953 C268.199951171875,238.9891357421875 251.5449676513672,249.59999084472656 231,249.59999084472656 C210.4550018310547,249.59999084472656 193.79998779296875,238.98915100097656 193.7999725341797,225.90000915527344 L193.7999725341797,225.90000915527344 C193.79995727539062,212.81085205078125 210.4549560546875,202.1999969482422 230.99993896484375,202.1999969482422 C251.54493713378906,202.19998168945312 268.199951171875,212.81082153320312 268.199951171875,225.89999389648438 C268.199951171875,225.89999389648438 268.199951171875,225.89999389648438 268.199951171875,225.89999389648438 " stroke="none" fill="#83CC7C" fill-rule="evenodd" stroke-width="0" fill-opacity="1" />
  <text x="4.207355499267578" y="35.284881591796875" dx="0" dy="0" font-family="Segoe UI" font-size="8.249999754130847pt" fill="#000000" style="text-anchor:start" transform="matrix(0.750000 0.000000 0.000000 0.750000 193.79998779296875 202.1999969482422)">Additional rasters</text>
  <path d="M268.199951171875,225.8999786376953 C268.199951171875,238.9891357421875 251.5449676513672,249.59999084472656 231,249.59999084472656 C210.4550018310547,249.59999084472656 193.79998779296875,238.98915100097656 193.7999725341797,225.90000915527344 L193.7999725341797,225.90000915527344 C193.79995727539062,212.81085205078125 210.4549560546875,202.1999969482422 230.99993896484375,202.1999969482422 C251.54493713378906,202.19998168945312 268.199951171875,212.81082153320312 268.199951171875,225.89999389648438 C268.199951171875,225.89999389648438 268.199951171875,225.89999389648438 268.199951171875,225.89999389648438 " stroke="none" fill="none" stroke-width="0.75" stroke-opacity="0" />
  <path d="M89.39998626708984,194.69998168945312 C89.39998626708984,207.7891387939453 72.74497985839844,218.39999389648438 52.20001220703125,218.39999389648438 C31.655027389526367,218.39999389648438 15.000014305114746,207.78915405273438 14.99999713897705,194.70001220703125 L14.999994277954102,194.70001220703125 C14.999977111816406,181.61085510253906 31.65497398376465,171 52.1999626159668,171 C72.74494934082031,170.99998474121094 89.39996337890625,181.61082458496094 89.39998626708984,194.6999969482422 C89.39998626708984,194.6999969482422 89.39998626708984,194.6999969482422 89.39998626708984,194.6999969482422 " stroke="none" fill="#70AECC" fill-rule="evenodd" stroke-width="0" fill-opacity="1" />
  <text x="13.256689071655273" y="35.284881591796875" dx="0" dy="0" font-family="Segoe UI" font-size="8.249999754130847pt" fill="#000000" style="text-anchor:start" transform="matrix(0.750000 0.000000 0.000000 0.750000 15 171)">BME Mean (2)</text>
  <path d="M89.39998626708984,194.69998168945312 C89.39998626708984,207.7891387939453 72.74497985839844,218.39999389648438 52.20001220703125,218.39999389648438 C31.655027389526367,218.39999389648438 15.000014305114746,207.78915405273438 14.99999713897705,194.70001220703125 L14.999994277954102,194.70001220703125 C14.999977111816406,181.61085510253906 31.65497398376465,171 52.1999626159668,171 C72.74494934082031,170.99998474121094 89.39996337890625,181.61082458496094 89.39998626708984,194.6999969482422 C89.39998626708984,194.6999969482422 89.39998626708984,194.6999969482422 89.39998626708984,194.6999969482422 " stroke="none" fill="none" stroke-width="0.75" stroke-opacity="0" />
  <path d="M291.70391845703125,171 L349.0960388183594,171 L349.09600830078125,171 C353.7926025390625,170.99998474121094 357.5999450683594,174.8073272705078 357.5999450683594,179.50392150878906 C357.5999450683594,179.50392150878906 357.5999450683594,179.50393676757812 357.5999450683594,179.50393676757812 L357.5999755859375,179.50393676757812 L357.5999755859375,209.89605712890625 L357.5999450683594,209.89605712890625 C357.5999450683594,214.5926513671875 353.7926330566406,218.39999389648438 349.0960388183594,218.39999389648438 L349.0960388183594,218.39999389648438 L291.70391845703125,218.39999389648438 L291.70391845703125,218.39999389648438 C287.00732421875,218.39999389648438 283.1999816894531,214.5926513671875 283.1999816894531,209.89605712890625 L283.1999816894531,179.50393676757812 L283.199951171875,179.50393676757812 C283.199951171875,174.80734252929688 287.0072937011719,171 291.7038879394531,170.99998474121094 " stroke="none" fill="#F2E279" fill-rule="evenodd" stroke-width="0" fill-opacity="1" />
  <text x="6.122522354125977" y="35.284881591796875" dx="0" dy="0" font-family="Segoe UI" font-size="8.249999754130847pt" fill="#000000" style="text-anchor:start" transform="matrix(0.750000 0.000000 0.000000 0.750000 283.1999816894531 171)">Raster Calculator</text>
  <path d="M291.70391845703125,171 L349.0960388183594,171 L349.09600830078125,171 C353.7926025390625,170.99998474121094 357.5999450683594,174.8073272705078 357.5999450683594,179.50392150878906 C357.5999450683594,179.50392150878906 357.5999450683594,179.50393676757812 357.5999450683594,179.50393676757812 L357.5999755859375,179.50393676757812 L357.5999755859375,209.89605712890625 L357.5999450683594,209.89605712890625 C357.5999450683594,214.5926513671875 353.7926330566406,218.39999389648438 349.0960388183594,218.39999389648438 L349.0960388183594,218.39999389648438 L291.70391845703125,218.39999389648438 L291.70391845703125,218.39999389648438 C287.00732421875,218.39999389648438 283.1999816894531,214.5926513671875 283.1999816894531,209.89605712890625 L283.1999816894531,179.50393676757812 L283.199951171875,179.50393676757812 C283.199951171875,174.80734252929688 287.0072937011719,171 291.7038879394531,170.99998474121094 " stroke="none" fill="none" stroke-width="0.75" stroke-opacity="0" />
  <path d="M446.99993896484375,163.49998474121094 C446.99993896484375,176.58914184570312 430.3449401855469,187.1999969482422 409.79998779296875,187.1999969482422 C389.2549743652344,187.1999969482422 372.5999755859375,176.5891571044922 372.5999450683594,163.50001525878906 L372.5999450683594,163.50001525878906 C372.5999450683594,150.41085815429688 389.25494384765625,139.8000030517578 409.7999267578125,139.8000030517578 C430.34490966796875,139.79998779296875 446.99993896484375,150.41082763671875 446.99993896484375,163.5 C446.99993896484375,163.5 446.99993896484375,163.5 446.99993896484375,163.5 " stroke="none" fill="#83CC7C" fill-rule="evenodd" stroke-width="0" fill-opacity="1" />
  <text x="17.3338565826416" y="35.284881591796875" dx="0" dy="0" font-family="Segoe UI" font-size="8.249999754130847pt" fill="#000000" style="text-anchor:start" transform="matrix(0.750000 0.000000 0.000000 0.750000 372.5999755859375 139.8000030517578)">concpop_ras</text>
  <path d="M446.99993896484375,163.49998474121094 C446.99993896484375,176.58914184570312 430.3449401855469,187.1999969482422 409.79998779296875,187.1999969482422 C389.2549743652344,187.1999969482422 372.5999755859375,176.5891571044922 372.5999450683594,163.50001525878906 L372.5999450683594,163.50001525878906 C372.5999450683594,150.41085815429688 389.25494384765625,139.8000030517578 409.7999267578125,139.8000030517578 C430.34490966796875,139.79998779296875 446.99993896484375,150.41082763671875 446.99993896484375,163.5 C446.99993896484375,163.5 446.99993896484375,163.5 446.99993896484375,163.5 " stroke="none" fill="none" stroke-width="0.75" stroke-opacity="0" />
  <path d="M112.9039306640625,46.20000076293945 L170.29605102539062,46.20000076293945 L170.29603576660156,46.20000076293945 C174.99261474609375,46.19999313354492 178.7999725341797,50.007328033447266 178.7999725341797,54.70393371582031 C178.7999725341797,54.70393371582031 178.7999725341797,54.70393753051758 178.7999725341797,54.70393753051758 L178.79998779296875,54.70393753051758 L178.79998779296875,85.09606170654297 L178.7999725341797,85.09605407714844 C178.7999725341797,89.79264831542969 174.99264526367188,93.59999084472656 170.29605102539062,93.5999984741211 L170.29605102539062,93.5999984741211 L112.9039306640625,93.5999984741211 L112.9039306640625,93.5999984741211 C108.20733642578125,93.5999984741211 104.39999389648438,89.79265594482422 104.39999389648438,85.09606170654297 L104.39999389648438,54.70393753051758 L104.39998626708984,54.703941345214844 C104.39998626708984,50.007347106933594 108.20732116699219,46.20000076293945 112.90391540527344,46.19999694824219 " stroke="none" fill="#F2E279" fill-rule="evenodd" stroke-width="0" fill-opacity="1" />
  <text x="4.41985559463501" y="27.96988296508789" dx="0" dy="0" font-family="Segoe UI" font-size="8.249999754130847pt" fill="#000000" style="text-anchor:start" transform="matrix(0.750000 0.000000 0.000000 0.750000 104.39999389648438 46.20000076293945)">Zonal Statistics as </text>
  <text x="35.53885269165039" y="42.599884033203125" dx="0" dy="0" font-family="Segoe UI" font-size="8.249999754130847pt" fill="#000000" style="text-anchor:start" transform="matrix(0.750000 0.000000 0.000000 0.750000 104.39999389648438 46.20000076293945)">Table</text>
  <path d="M112.9039306640625,46.20000076293945 L170.29605102539062,46.20000076293945 L170.29603576660156,46.20000076293945 C174.99261474609375,46.19999313354492 178.7999725341797,50.007328033447266 178.7999725341797,54.70393371582031 C178.7999725341797,54.70393371582031 178.7999725341797,54.70393753051758 178.7999725341797,54.70393753051758 L178.79998779296875,54.70393753051758 L178.79998779296875,85.09606170654297 L178.7999725341797,85.09605407714844 C178.7999725341797,89.79264831542969 174.99264526367188,93.59999084472656 170.29605102539062,93.5999984741211 L170.29605102539062,93.5999984741211 L112.9039306640625,93.5999984741211 L112.9039306640625,93.5999984741211 C108.20733642578125,93.5999984741211 104.39999389648438,89.79265594482422 104.39999389648438,85.09606170654297 L104.39999389648438,54.70393753051758 L104.39998626708984,54.703941345214844 C104.39998626708984,50.007347106933594 108.20732116699219,46.20000076293945 112.90391540527344,46.19999694824219 " stroke="none" fill="none" stroke-width="0.75" stroke-opacity="0" />
  <path d="M625.7999267578125,38.69999313354492 C625.7999267578125,51.78913879394531 609.1448974609375,62.399993896484375 588.5999755859375,62.39999771118164 C568.054931640625,62.400001525878906 551.3999633789062,51.78915786743164 551.39990234375,38.70001220703125 L551.39990234375,38.700016021728516 C551.39990234375,25.610868453979492 568.054931640625,15.000008583068848 588.5999145507812,15 C609.1448974609375,14.99998950958252 625.7999267578125,25.61083221435547 625.7999267578125,38.69999694824219 C625.7999267578125,38.69999694824219 625.7999267578125,38.69999694824219 625.7999267578125,38.69999694824219 " stroke="none" fill="#83CC7C" fill-rule="evenodd" stroke-width="0" fill-opacity="1" />
  <text x="9.899855613708496" y="35.284881591796875" dx="0" dy="0" font-family="Segoe UI" font-size="8.249999754130847pt" fill="#000000" style="text-anchor:start" transform="matrix(0.750000 0.000000 0.000000 0.750000 551.3999633789062 15)">ZonalSt_PopTbl</text>
  <path d="M625.7999267578125,38.69999313354492 C625.7999267578125,51.78913879394531 609.1448974609375,62.399993896484375 588.5999755859375,62.39999771118164 C568.054931640625,62.400001525878906 551.3999633789062,51.78915786743164 551.39990234375,38.70001220703125 L551.39990234375,38.700016021728516 C551.39990234375,25.610868453979492 568.054931640625,15.000008583068848 588.5999145507812,15 C609.1448974609375,14.99998950958252 625.7999267578125,25.61083221435547 625.7999267578125,38.69999694824219 C625.7999267578125,38.69999694824219 625.7999267578125,38.69999694824219 625.7999267578125,38.69999694824219 " stroke="none" fill="none" stroke-width="0.75" stroke-opacity="0" />
  <path d="M268.199951171875,101.09999084472656 C268.199951171875,114.18914031982422 251.5449676513672,124.79999542236328 231,124.79999542236328 C210.4550018310547,124.80000305175781 193.79998779296875,114.18915557861328 193.7999725341797,101.10001373291016 L193.7999725341797,101.10001373291016 C193.79995727539062,88.0108642578125 210.4549560546875,77.40000915527344 230.99993896484375,77.4000015258789 C251.54493713378906,77.39998626708984 268.199951171875,88.01083374023438 268.199951171875,101.0999984741211 C268.199951171875,101.0999984741211 268.199951171875,101.0999984741211 268.199951171875,101.0999984741211 " stroke="none" fill="#E7E7E7" fill-rule="evenodd" stroke-width="0" fill-opacity="1" />
  <text x="3.347855567932129" y="35.284881591796875" dx="0" dy="0" font-family="Segoe UI" font-size="8.249999754130847pt" fill="#000000" style="text-anchor:start" transform="matrix(0.750000 0.000000 0.000000 0.750000 193.79998779296875 77.4000015258789)">Output Join Layer</text>
  <path d="M268.199951171875,101.09999084472656 C268.199951171875,114.18914031982422 251.5449676513672,124.79999542236328 231,124.79999542236328 C210.4550018310547,124.80000305175781 193.79998779296875,114.18915557861328 193.7999725341797,101.10001373291016 L193.7999725341797,101.10001373291016 C193.79995727539062,88.0108642578125 210.4549560546875,77.40000915527344 230.99993896484375,77.4000015258789 C251.54493713378906,77.39998626708984 268.199951171875,88.01083374023438 268.199951171875,101.0999984741211 C268.199951171875,101.0999984741211 268.199951171875,101.0999984741211 268.199951171875,101.0999984741211 " stroke="none" fill="none" stroke-width="0.75" stroke-opacity="0" />
  <path d="M89.39998626708984,257.0999755859375 C89.39998626708984,270.18914794921875 72.74497985839844,280.79998779296875 52.20001220703125,280.79998779296875 C31.655027389526367,280.79998779296875 15.000014305114746,270.18914794921875 14.99999713897705,257.1000061035156 L14.999994277954102,257.1000061035156 C14.999977111816406,244.0108642578125 31.65497398376465,233.40000915527344 52.1999626159668,233.40000915527344 C72.74494934082031,233.39999389648438 89.39996337890625,244.01083374023438 89.39998626708984,257.1000061035156 C89.39998626708984,257.1000061035156 89.39998626708984,257.1000061035156 89.39998626708984,257.1000061035156 " stroke="none" fill="#70AECC" fill-rule="evenodd" stroke-width="0" fill-opacity="1" />
  <text x="8.435355186462402" y="27.96988296508789" dx="0" dy="0" font-family="Segoe UI" font-size="8.249999754130847pt" fill="#000000" style="text-anchor:start" transform="matrix(0.750000 0.000000 0.000000 0.750000 15 233.40000915527344)">geoBoundaries</text>
  <text x="82.33818817138672" y="27.96988296508789" dx="0" dy="0" font-family="Segoe UI" font-size="8.249999754130847pt" fill="#000000" style="text-anchor:start" transform="matrix(0.750000 0.000000 0.000000 0.750000 15 233.40000915527344)">-</text>
  <text x="14.111855506896973" y="42.599884033203125" dx="0" dy="0" font-family="Segoe UI" font-size="8.249999754130847pt" fill="#000000" style="text-anchor:start" transform="matrix(0.750000 0.000000 0.000000 0.750000 15 233.40000915527344)">IND</text>
  <text x="32.24485397338867" y="42.599884033203125" dx="0" dy="0" font-family="Segoe UI" font-size="8.249999754130847pt" fill="#000000" style="text-anchor:start" transform="matrix(0.750000 0.000000 0.000000 0.750000 15 233.40000915527344)">-</text>
  <text x="35.29735565185547" y="42.599884033203125" dx="0" dy="0" font-family="Segoe UI" font-size="8.249999754130847pt" fill="#000000" style="text-anchor:start" transform="matrix(0.750000 0.000000 0.000000 0.750000 15 233.40000915527344)">ADM2 (2)</text>
  <path d="M89.39998626708984,257.0999755859375 C89.39998626708984,270.18914794921875 72.74497985839844,280.79998779296875 52.20001220703125,280.79998779296875 C31.655027389526367,280.79998779296875 15.000014305114746,270.18914794921875 14.99999713897705,257.1000061035156 L14.999994277954102,257.1000061035156 C14.999977111816406,244.0108642578125 31.65497398376465,233.40000915527344 52.1999626159668,233.40000915527344 C72.74494934082031,233.39999389648438 89.39996337890625,244.01083374023438 89.39998626708984,257.1000061035156 C89.39998626708984,257.1000061035156 89.39998626708984,257.1000061035156 89.39998626708984,257.1000061035156 " stroke="none" fill="none" stroke-width="0.75" stroke-opacity="0" />
  <path d="M470.5039367675781,171 L527.8960571289062,171 L527.89599609375,171 C532.5925903320312,170.99998474121094 536.3999633789062,174.8073272705078 536.3999633789062,179.50392150878906 C536.3999633789062,179.50392150878906 536.3999633789062,179.50393676757812 536.3999633789062,179.50393676757812 L536.3999633789062,179.50393676757812 L536.3999633789062,209.89605712890625 L536.3999633789062,209.89605712890625 C536.3999633789062,214.5926513671875 532.5926513671875,218.39999389648438 527.8960571289062,218.39999389648438 L527.8960571289062,218.39999389648438 L470.5039367675781,218.39999389648438 L470.5039367675781,218.39999389648438 C465.8073425292969,218.39999389648438 462,214.5926513671875 462,209.89605712890625 L462,179.50393676757812 L461.9999694824219,179.50393676757812 C461.9999694824219,174.80734252929688 465.80731201171875,171 470.50390625,170.99998474121094 " stroke="none" fill="#F2E279" fill-rule="evenodd" stroke-width="0" fill-opacity="1" />
  <text x="4.41985559463501" y="27.96988296508789" dx="0" dy="0" font-family="Segoe UI" font-size="8.249999754130847pt" fill="#000000" style="text-anchor:start" transform="matrix(0.750000 0.000000 0.000000 0.750000 462 171)">Zonal Statistics as </text>
  <text x="27.748855590820312" y="42.599884033203125" dx="0" dy="0" font-family="Segoe UI" font-size="8.249999754130847pt" fill="#000000" style="text-anchor:start" transform="matrix(0.750000 0.000000 0.000000 0.750000 462 171)">Table (2)</text>
  <path d="M470.5039367675781,171 L527.8960571289062,171 L527.89599609375,171 C532.5925903320312,170.99998474121094 536.3999633789062,174.8073272705078 536.3999633789062,179.50392150878906 C536.3999633789062,179.50392150878906 536.3999633789062,179.50393676757812 536.3999633789062,179.50393676757812 L536.3999633789062,179.50393676757812 L536.3999633789062,209.89605712890625 L536.3999633789062,209.89605712890625 C536.3999633789062,214.5926513671875 532.5926513671875,218.39999389648438 527.8960571289062,218.39999389648438 L527.8960571289062,218.39999389648438 L470.5039367675781,218.39999389648438 L470.5039367675781,218.39999389648438 C465.8073425292969,218.39999389648438 462,214.5926513671875 462,209.89605712890625 L462,179.50393676757812 L461.9999694824219,179.50393676757812 C461.9999694824219,174.80734252929688 465.80731201171875,171 470.50390625,170.99998474121094 " stroke="none" fill="none" stroke-width="0.75" stroke-opacity="0" />
  <path d="M625.7999267578125,194.69998168945312 C625.7999267578125,207.7891387939453 609.1448974609375,218.39999389648438 588.5999755859375,218.39999389648438 C568.054931640625,218.39999389648438 551.3999633789062,207.78915405273438 551.39990234375,194.70001220703125 L551.39990234375,194.70001220703125 C551.39990234375,181.61085510253906 568.054931640625,171 588.5999145507812,171 C609.1448974609375,170.99998474121094 625.7999267578125,181.61082458496094 625.7999267578125,194.6999969482422 C625.7999267578125,194.6999969482422 625.7999267578125,194.6999969482422 625.7999267578125,194.6999969482422 " stroke="none" fill="#83CC7C" fill-rule="evenodd" stroke-width="0" fill-opacity="1" />
  <text x="4.266522407531738" y="35.284881591796875" dx="0" dy="0" font-family="Segoe UI" font-size="8.249999754130847pt" fill="#000000" style="text-anchor:start" transform="matrix(0.750000 0.000000 0.000000 0.750000 551.3999633789062 171)">ZonalSt_ConcPo</text>
  <text x="81.1231918334961" y="35.284881591796875" dx="0" dy="0" font-family="Segoe UI" font-size="8.249999754130847pt" fill="#000000" style="text-anchor:start" transform="matrix(0.750000 0.000000 0.000000 0.750000 551.3999633789062 171)"> ...</text>
  <path d="M625.7999267578125,194.69998168945312 C625.7999267578125,207.7891387939453 609.1448974609375,218.39999389648438 588.5999755859375,218.39999389648438 C568.054931640625,218.39999389648438 551.3999633789062,207.78915405273438 551.39990234375,194.70001220703125 L551.39990234375,194.70001220703125 C551.39990234375,181.61085510253906 568.054931640625,171 588.5999145507812,171 C609.1448974609375,170.99998474121094 625.7999267578125,181.61082458496094 625.7999267578125,194.6999969482422 C625.7999267578125,194.6999969482422 625.7999267578125,194.6999969482422 625.7999267578125,194.6999969482422 " stroke="none" fill="none" stroke-width="0.75" stroke-opacity="0" />
  <path d="M625.7999267578125,257.0999755859375 C625.7999267578125,270.18914794921875 609.1448974609375,280.79998779296875 588.5999755859375,280.79998779296875 C568.054931640625,280.79998779296875 551.3999633789062,270.18914794921875 551.39990234375,257.1000061035156 L551.39990234375,257.1000061035156 C551.39990234375,244.0108642578125 568.054931640625,233.40000915527344 588.5999145507812,233.40000915527344 C609.1448974609375,233.39999389648438 625.7999267578125,244.01083374023438 625.7999267578125,257.1000061035156 C625.7999267578125,257.1000061035156 625.7999267578125,257.1000061035156 625.7999267578125,257.1000061035156 " stroke="none" fill="#E7E7E7" fill-rule="evenodd" stroke-width="0" fill-opacity="1" />
  <text x="3.347855567932129" y="27.96988296508789" dx="0" dy="0" font-family="Segoe UI" font-size="8.249999754130847pt" fill="#000000" style="text-anchor:start" transform="matrix(0.750000 0.000000 0.000000 0.750000 551.3999633789062 233.40000915527344)">Output Join Layer </text>
  <text x="42.36051940917969" y="42.599884033203125" dx="0" dy="0" font-family="Segoe UI" font-size="8.249999754130847pt" fill="#000000" style="text-anchor:start" transform="matrix(0.750000 0.000000 0.000000 0.750000 551.3999633789062 233.40000915527344)">(2)</text>
  <path d="M625.7999267578125,257.0999755859375 C625.7999267578125,270.18914794921875 609.1448974609375,280.79998779296875 588.5999755859375,280.79998779296875 C568.054931640625,280.79998779296875 551.3999633789062,270.18914794921875 551.39990234375,257.1000061035156 L551.39990234375,257.1000061035156 C551.39990234375,244.0108642578125 568.054931640625,233.40000915527344 588.5999145507812,233.40000915527344 C609.1448974609375,233.39999389648438 625.7999267578125,244.01083374023438 625.7999267578125,257.1000061035156 C625.7999267578125,257.1000061035156 625.7999267578125,257.1000061035156 625.7999267578125,257.1000061035156 " stroke="none" fill="none" stroke-width="0.75" stroke-opacity="0" />
  <path d="M649.3038940429688,93 L706.696044921875,93 L706.6959838867188,93 C711.392578125,92.99999237060547 715.199951171875,96.80732727050781 715.199951171875,101.5039291381836 C715.199951171875,101.5039291381836 715.199951171875,101.50393676757812 715.199951171875,101.50393676757812 L715.199951171875,101.50393676757812 L715.199951171875,131.89605712890625 L715.199951171875,131.89605712890625 C715.199951171875,136.5926513671875 711.3926391601562,140.39999389648438 706.696044921875,140.39999389648438 L706.696044921875,140.39999389648438 L649.3038940429688,140.39999389648438 L649.3038940429688,140.39999389648438 C644.6072998046875,140.39999389648438 640.7999877929688,136.5926513671875 640.7999877929688,131.89605712890625 L640.7999877929688,101.50393676757812 L640.7999267578125,101.50393676757812 C640.7999267578125,96.80734252929688 644.6072998046875,93 649.3038940429688,92.99999237060547 " stroke="none" fill="#F2E279" fill-rule="evenodd" stroke-width="0" fill-opacity="1" />
  <text x="25.74468994140625" y="35.284881591796875" dx="0" dy="0" font-family="Segoe UI" font-size="8.249999754130847pt" fill="#000000" style="text-anchor:start" transform="matrix(0.750000 0.000000 0.000000 0.750000 640.7999877929688 93)">Join Field</text>
  <path d="M649.3038940429688,93 L706.696044921875,93 L706.6959838867188,93 C711.392578125,92.99999237060547 715.199951171875,96.80732727050781 715.199951171875,101.5039291381836 C715.199951171875,101.5039291381836 715.199951171875,101.50393676757812 715.199951171875,101.50393676757812 L715.199951171875,101.50393676757812 L715.199951171875,131.89605712890625 L715.199951171875,131.89605712890625 C715.199951171875,136.5926513671875 711.3926391601562,140.39999389648438 706.696044921875,140.39999389648438 L706.696044921875,140.39999389648438 L649.3038940429688,140.39999389648438 L649.3038940429688,140.39999389648438 C644.6072998046875,140.39999389648438 640.7999877929688,136.5926513671875 640.7999877929688,131.89605712890625 L640.7999877929688,101.50393676757812 L640.7999267578125,101.50393676757812 C640.7999267578125,96.80734252929688 644.6072998046875,93 649.3038940429688,92.99999237060547 " stroke="none" fill="none" stroke-width="0.75" stroke-opacity="0" />
  <path d="M804.5999145507812,116.69998931884766 C804.5999145507812,129.7891387939453 787.9448852539062,140.39999389648438 767.3999633789062,140.39999389648438 C746.8549194335938,140.39999389648438 730.199951171875,129.78915405273438 730.1998901367188,116.70001220703125 L730.1998901367188,116.70001220703125 C730.1998901367188,103.6108627319336 746.8549194335938,93.00000762939453 767.39990234375,93 C787.9448852539062,92.99998474121094 804.5999145507812,103.61083221435547 804.5999145507812,116.69999694824219 C804.5999145507812,116.69999694824219 804.5999145507812,116.69999694824219 804.5999145507812,116.69999694824219 " stroke="none" fill="#83CC7C" fill-rule="evenodd" stroke-width="0" fill-opacity="1" />
  <text x="2.10652232170105" y="35.284881591796875" dx="0" dy="0" font-family="Segoe UI" font-size="8.249999754130847pt" fill="#000000" style="text-anchor:start" transform="matrix(0.750000 0.000000 0.000000 0.750000 730.199951171875 93)">ZonalSt_PopTbl (2)</text>
  <path d="M804.5999145507812,116.69998931884766 C804.5999145507812,129.7891387939453 787.9448852539062,140.39999389648438 767.3999633789062,140.39999389648438 C746.8549194335938,140.39999389648438 730.199951171875,129.78915405273438 730.1998901367188,116.70001220703125 L730.1998901367188,116.70001220703125 C730.1998901367188,103.6108627319336 746.8549194335938,93.00000762939453 767.39990234375,93 C787.9448852539062,92.99998474121094 804.5999145507812,103.61083221435547 804.5999145507812,116.69999694824219 C804.5999145507812,116.69999694824219 804.5999145507812,116.69999694824219 804.5999145507812,116.69999694824219 " stroke="none" fill="none" stroke-width="0.75" stroke-opacity="0" />
  <path d="M828.1038818359375,93 L885.4960327148438,93 L885.4959716796875,93 C890.1925659179688,92.99999237060547 893.9999389648438,96.80732727050781 893.9999389648438,101.5039291381836 C893.9999389648438,101.5039291381836 893.9999389648438,101.50393676757812 893.9999389648438,101.50393676757812 L893.9999389648438,101.50393676757812 L893.9999389648438,131.89605712890625 L893.9999389648438,131.89605712890625 C893.9999389648438,136.5926513671875 890.192626953125,140.39999389648438 885.4960327148438,140.39999389648438 L885.4960327148438,140.39999389648438 L828.1038818359375,140.39999389648438 L828.1038818359375,140.39999389648438 C823.4072875976562,140.39999389648438 819.5999755859375,136.5926513671875 819.5999755859375,131.89605712890625 L819.5999755859375,101.50393676757812 L819.5999145507812,101.50393676757812 C819.5999145507812,96.80734252929688 823.4072875976562,93 828.1038818359375,92.99999237060547 " stroke="none" fill="#F2E279" fill-rule="evenodd" stroke-width="0" fill-opacity="1" />
  <text x="23.767356872558594" y="35.284881591796875" dx="0" dy="0" font-family="Segoe UI" font-size="8.249999754130847pt" fill="#000000" style="text-anchor:start" transform="matrix(0.750000 0.000000 0.000000 0.750000 819.5999755859375 93)">Add Field</text>
  <path d="M828.1038818359375,93 L885.4960327148438,93 L885.4959716796875,93 C890.1925659179688,92.99999237060547 893.9999389648438,96.80732727050781 893.9999389648438,101.5039291381836 C893.9999389648438,101.5039291381836 893.9999389648438,101.50393676757812 893.9999389648438,101.50393676757812 L893.9999389648438,101.50393676757812 L893.9999389648438,131.89605712890625 L893.9999389648438,131.89605712890625 C893.9999389648438,136.5926513671875 890.192626953125,140.39999389648438 885.4960327148438,140.39999389648438 L885.4960327148438,140.39999389648438 L828.1038818359375,140.39999389648438 L828.1038818359375,140.39999389648438 C823.4072875976562,140.39999389648438 819.5999755859375,136.5926513671875 819.5999755859375,131.89605712890625 L819.5999755859375,101.50393676757812 L819.5999145507812,101.50393676757812 C819.5999145507812,96.80734252929688 823.4072875976562,93 828.1038818359375,92.99999237060547 " stroke="none" fill="none" stroke-width="0.75" stroke-opacity="0" />
  <path d="M983.3999633789062,116.69998931884766 C983.3999633789062,129.7891387939453 966.7449340820312,140.39999389648438 946.2000122070312,140.39999389648438 C925.6549682617188,140.39999389648438 909,129.78915405273438 908.9999389648438,116.70001220703125 L908.9999389648438,116.70001220703125 C908.9999389648438,103.6108627319336 925.6549682617188,93.00000762939453 946.199951171875,93 C966.7449340820312,92.99998474121094 983.3999633789062,103.61083221435547 983.3999633789062,116.69999694824219 C983.3999633789062,116.69999694824219 983.3999633789062,116.69999694824219 983.3999633789062,116.69999694824219 " stroke="none" fill="#83CC7C" fill-rule="evenodd" stroke-width="0" fill-opacity="1" />
  <text x="2.10652232170105" y="35.284881591796875" dx="0" dy="0" font-family="Segoe UI" font-size="8.249999754130847pt" fill="#000000" style="text-anchor:start" transform="matrix(0.750000 0.000000 0.000000 0.750000 909 93)">ZonalSt_PopTbl (3)</text>
  <path d="M983.3999633789062,116.69998931884766 C983.3999633789062,129.7891387939453 966.7449340820312,140.39999389648438 946.2000122070312,140.39999389648438 C925.6549682617188,140.39999389648438 909,129.78915405273438 908.9999389648438,116.70001220703125 L908.9999389648438,116.70001220703125 C908.9999389648438,103.6108627319336 925.6549682617188,93.00000762939453 946.199951171875,93 C966.7449340820312,92.99998474121094 983.3999633789062,103.61083221435547 983.3999633789062,116.69999694824219 C983.3999633789062,116.69999694824219 983.3999633789062,116.69999694824219 983.3999633789062,116.69999694824219 " stroke="none" fill="none" stroke-width="0.75" stroke-opacity="0" />
  <path d="M1006.9038696289062,93 L1064.2960205078125,93 L1064.2958984375,93 C1068.9925537109375,92.99999237060547 1072.7999267578125,96.80732727050781 1072.7999267578125,101.5039291381836 C1072.7999267578125,101.5039291381836 1072.7999267578125,101.50393676757812 1072.7999267578125,101.50393676757812 L1072.7999267578125,101.50393676757812 L1072.7999267578125,131.89605712890625 L1072.7999267578125,131.89605712890625 C1072.7999267578125,136.5926513671875 1068.9925537109375,140.39999389648438 1064.2960205078125,140.39999389648438 L1064.2960205078125,140.39999389648438 L1006.9038696289062,140.39999389648438 L1006.9038696289062,140.39999389648438 C1002.207275390625,140.39999389648438 998.3999633789062,136.5926513671875 998.3999633789062,131.89605712890625 L998.3999633789062,101.50393676757812 L998.39990234375,101.50393676757812 C998.39990234375,96.80734252929688 1002.207275390625,93 1006.9038696289062,92.99999237060547 " stroke="none" fill="#F2E279" fill-rule="evenodd" stroke-width="0" fill-opacity="1" />
  <text x="11.877021789550781" y="35.284881591796875" dx="0" dy="0" font-family="Segoe UI" font-size="8.249999754130847pt" fill="#000000" style="text-anchor:start" transform="matrix(0.750000 0.000000 0.000000 0.750000 998.3999633789062 93)">Calculate Field</text>
  <path d="M1006.9038696289062,93 L1064.2960205078125,93 L1064.2958984375,93 C1068.9925537109375,92.99999237060547 1072.7999267578125,96.80732727050781 1072.7999267578125,101.5039291381836 C1072.7999267578125,101.5039291381836 1072.7999267578125,101.50393676757812 1072.7999267578125,101.50393676757812 L1072.7999267578125,101.50393676757812 L1072.7999267578125,131.89605712890625 L1072.7999267578125,131.89605712890625 C1072.7999267578125,136.5926513671875 1068.9925537109375,140.39999389648438 1064.2960205078125,140.39999389648438 L1064.2960205078125,140.39999389648438 L1006.9038696289062,140.39999389648438 L1006.9038696289062,140.39999389648438 C1002.207275390625,140.39999389648438 998.3999633789062,136.5926513671875 998.3999633789062,131.89605712890625 L998.3999633789062,101.50393676757812 L998.39990234375,101.50393676757812 C998.39990234375,96.80734252929688 1002.207275390625,93 1006.9038696289062,92.99999237060547 " stroke="none" fill="none" stroke-width="0.75" stroke-opacity="0" />
  <path d="M1162.1998291015625,116.69998931884766 C1162.1998291015625,129.7891387939453 1145.5447998046875,140.39999389648438 1124.9998779296875,140.39999389648438 C1104.454833984375,140.39999389648438 1087.7999267578125,129.78915405273438 1087.7998046875,116.70001220703125 L1087.7998046875,116.70001220703125 C1087.7998046875,103.6108627319336 1104.454833984375,93.00000762939453 1124.9998779296875,93 C1145.5447998046875,92.99998474121094 1162.1998291015625,103.61083221435547 1162.1998291015625,116.69999694824219 C1162.1998291015625,116.69999694824219 1162.1998291015625,116.69999694824219 1162.1998291015625,116.69999694824219 " stroke="none" fill="#83CC7C" fill-rule="evenodd" stroke-width="0" fill-opacity="1" />
  <text x="2.10652232170105" y="35.284881591796875" dx="0" dy="0" font-family="Segoe UI" font-size="8.249999754130847pt" fill="#000000" style="text-anchor:start" transform="matrix(0.750000 0.000000 0.000000 0.750000 1087.7999267578125 93)">ZonalSt_PopTbl (4)</text>
  <path d="M1162.1998291015625,116.69998931884766 C1162.1998291015625,129.7891387939453 1145.5447998046875,140.39999389648438 1124.9998779296875,140.39999389648438 C1104.454833984375,140.39999389648438 1087.7999267578125,129.78915405273438 1087.7998046875,116.70001220703125 L1087.7998046875,116.70001220703125 C1087.7998046875,103.6108627319336 1104.454833984375,93.00000762939453 1124.9998779296875,93 C1145.5447998046875,92.99998474121094 1162.1998291015625,103.61083221435547 1162.1998291015625,116.69999694824219 C1162.1998291015625,116.69999694824219 1162.1998291015625,116.69999694824219 1162.1998291015625,116.69999694824219 " stroke="none" fill="none" stroke-width="0.75" stroke-opacity="0" />
  <path d="M1185.703857421875,210 L1243.095947265625,210 L1243.095947265625,210 C1247.79248046875,209.99998474121094 1251.599853515625,213.8073272705078 1251.599853515625,218.50392150878906 C1251.599853515625,218.50392150878906 1251.599853515625,218.50393676757812 1251.599853515625,218.50393676757812 L1251.599853515625,218.50393676757812 L1251.599853515625,248.89605712890625 L1251.599853515625,248.89605712890625 C1251.599853515625,253.5926513671875 1247.7926025390625,257.3999938964844 1243.095947265625,257.3999938964844 L1243.095947265625,257.3999938964844 L1185.703857421875,257.3999938964844 L1185.703857421875,257.3999938964844 C1181.0072021484375,257.3999938964844 1177.199951171875,253.5926513671875 1177.199951171875,248.89605712890625 L1177.199951171875,218.50393676757812 L1177.1998291015625,218.50393676757812 C1177.1998291015625,213.80734252929688 1181.0072021484375,210 1185.703857421875,209.99998474121094 " stroke="none" fill="#F2E279" fill-rule="evenodd" stroke-width="0" fill-opacity="1" />
  <text x="17.951356887817383" y="35.284881591796875" dx="0" dy="0" font-family="Segoe UI" font-size="8.249999754130847pt" fill="#000000" style="text-anchor:start" transform="matrix(0.750000 0.000000 0.000000 0.750000 1177.199951171875 210)">Join Field (2)</text>
  <path d="M1185.703857421875,210 L1243.095947265625,210 L1243.095947265625,210 C1247.79248046875,209.99998474121094 1251.599853515625,213.8073272705078 1251.599853515625,218.50392150878906 C1251.599853515625,218.50392150878906 1251.599853515625,218.50393676757812 1251.599853515625,218.50393676757812 L1251.599853515625,218.50393676757812 L1251.599853515625,248.89605712890625 L1251.599853515625,248.89605712890625 C1251.599853515625,253.5926513671875 1247.7926025390625,257.3999938964844 1243.095947265625,257.3999938964844 L1243.095947265625,257.3999938964844 L1185.703857421875,257.3999938964844 L1185.703857421875,257.3999938964844 C1181.0072021484375,257.3999938964844 1177.199951171875,253.5926513671875 1177.199951171875,248.89605712890625 L1177.199951171875,218.50393676757812 L1177.1998291015625,218.50393676757812 C1177.1998291015625,213.80734252929688 1181.0072021484375,210 1185.703857421875,209.99998474121094 " stroke="none" fill="none" stroke-width="0.75" stroke-opacity="0" />
  <path d="M1340.9998779296875,233.69998168945312 C1340.9998779296875,246.7891387939453 1324.3448486328125,257.3999938964844 1303.7999267578125,257.3999938964844 C1283.2548828125,257.3999938964844 1266.5999755859375,246.78915405273438 1266.599853515625,233.70001220703125 L1266.599853515625,233.70001220703125 C1266.599853515625,220.61085510253906 1283.2548828125,210 1303.7999267578125,210 C1324.3448486328125,209.99998474121094 1340.9998779296875,220.61082458496094 1340.9998779296875,233.6999969482422 C1340.9998779296875,233.6999969482422 1340.9998779296875,233.6999969482422 1340.9998779296875,233.6999969482422 " stroke="none" fill="#83CC7C" fill-rule="evenodd" stroke-width="0" fill-opacity="1" />
  <text x="8.435355186462402" y="27.96988296508789" dx="0" dy="0" font-family="Segoe UI" font-size="8.249999754130847pt" fill="#000000" style="text-anchor:start" transform="matrix(0.750000 0.000000 0.000000 0.750000 1266.5999755859375 210)">geoBoundaries</text>
  <text x="82.33818817138672" y="27.96988296508789" dx="0" dy="0" font-family="Segoe UI" font-size="8.249999754130847pt" fill="#000000" style="text-anchor:start" transform="matrix(0.750000 0.000000 0.000000 0.750000 1266.5999755859375 210)">-</text>
  <text x="14.111855506896973" y="42.599884033203125" dx="0" dy="0" font-family="Segoe UI" font-size="8.249999754130847pt" fill="#000000" style="text-anchor:start" transform="matrix(0.750000 0.000000 0.000000 0.750000 1266.5999755859375 210)">IND</text>
  <text x="32.24485397338867" y="42.599884033203125" dx="0" dy="0" font-family="Segoe UI" font-size="8.249999754130847pt" fill="#000000" style="text-anchor:start" transform="matrix(0.750000 0.000000 0.000000 0.750000 1266.5999755859375 210)">-</text>
  <text x="35.29735565185547" y="42.599884033203125" dx="0" dy="0" font-family="Segoe UI" font-size="8.249999754130847pt" fill="#000000" style="text-anchor:start" transform="matrix(0.750000 0.000000 0.000000 0.750000 1266.5999755859375 210)">ADM2 (3)</text>
  <path d="M1340.9998779296875,233.69998168945312 C1340.9998779296875,246.7891387939453 1324.3448486328125,257.3999938964844 1303.7999267578125,257.3999938964844 C1283.2548828125,257.3999938964844 1266.5999755859375,246.78915405273438 1266.599853515625,233.70001220703125 L1266.599853515625,233.70001220703125 C1266.599853515625,220.61085510253906 1283.2548828125,210 1303.7999267578125,210 C1324.3448486328125,209.99998474121094 1340.9998779296875,220.61082458496094 1340.9998779296875,233.6999969482422 C1340.9998779296875,233.6999969482422 1340.9998779296875,233.6999969482422 1340.9998779296875,233.6999969482422 " stroke="none" fill="none" stroke-width="0.75" stroke-opacity="0" />
</svg>